<?xml version="1.0" encoding="UTF-8"?>
<svg version="1.1" xmlns="http://www.w3.org/2000/svg" width="590" height="500">
<path d="M0 0 C194.7 0 389.4 0 590 0 C590 165 590 330 590 500 C395.3 500 200.6 500 0 500 C0 335 0 170 0 0 Z " fill="#FFFFFF" transform="translate(0,0)"/>
<path d="M0 0 C86.79 0 173.58 0 263 0 C263 103.62 263 207.24 263 314 C176.21 314 89.42 314 0 314 C0 210.38 0 106.76 0 0 Z " fill="#FFFFFF" transform="translate(162,91)"/>
<path d="M0 0 C0 62.7 0 125.4 0 190 C-78.54 190 -157.08 190 -238 190 C-215.65257399 137.85600597 -215.65257399 137.85600597 -189.21484375 127.0078125 C-177.9730963 123.4836681 -166.14324739 122.93533994 -154.47119141 121.90087891 C-145.23589622 121.07402494 -136.17239237 120.0224693 -127.109375 118.01953125 C-126.37630127 117.85756256 -125.64322754 117.69559387 -124.88793945 117.52871704 C-112.32920556 114.58487448 -104.01948385 108.58551232 -97.0859375 97.83984375 C-91.03775641 87.30255559 -87.48730186 75.02630627 -84.046875 63.4375 C-77.81606397 42.97812048 -71.48654788 24.77012176 -51.69677734 13.81420898 C-36.35619859 5.79701196 -17.30755711 0 0 0 Z " fill="#FEFEFE" transform="translate(413,109)"/>
<path d="M0 0 C74.91 0 149.82 0 227 0 C227 0.33 227 0.66 227 1 C226.41734375 1.12004395 225.8346875 1.24008789 225.234375 1.36376953 C201.37237269 6.34908959 176.80326674 12.57831175 162.58203125 34.2265625 C155.56759289 46.52347912 150.92968133 60.80522005 147.20947266 74.43457031 C143.46960771 88.05055312 137.70703464 104.22837188 125.4375 112.25 C110.3750184 120.56033468 92.86817703 121.35802628 76.07421875 122.52636719 C55.42410045 123.98675844 36.69211866 128.2379402 22 144 C13.09264488 154.72633079 6.39060629 168.21424036 1 181 C0.67 181 0.34 181 0 181 C0 121.27 0 61.54 0 0 Z " fill="#FEFEFE" transform="translate(175,105)"/>
<path d="M0 0 C26.07 0 52.14 0 79 0 C79 29.37 79 58.74 79 89 C52.93 89 26.86 89 0 89 C0 59.63 0 30.26 0 0 Z " fill="#C1C2C3" transform="translate(338,308)"/>
<path d="M0 0 C26.07 0 52.14 0 79 0 C79 29.37 79 58.74 79 89 C52.93 89 26.86 89 0 89 C0 59.63 0 30.26 0 0 Z " fill="#FFFFFF" transform="translate(171,308)"/>
<path d="M0 0 C81.84 0 163.68 0 248 0 C248 67.32 248 134.64 248 204 C166.16 204 84.32 204 0 204 C0 136.68 0 69.36 0 0 Z M5 5 C5 64.73 5 124.46 5 186 C7.83223736 183.16776264 9.06603399 179.66786372 10.6875 176.0625 C19.28671727 157.42369657 30.25667446 142.16878586 49.23828125 133.32421875 C59.4196359 129.74012817 69.67411751 128.47916013 80.37054443 127.72128296 C110.74775163 125.9964846 110.74775163 125.9964846 137 112 C145.96182677 100.57996156 150.22400103 86.68177267 154.43359375 73.0234375 C161.49781375 50.19367253 168.68300348 30.3465707 190.9609375 18.4140625 C204.03621682 12.05398836 217.74380258 8.5194142 232 6 C232 5.67 232 5.34 232 5 C157.09 5 82.18 5 5 5 Z M178.27734375 32.609375 C165.27082866 46.2628694 159.86246676 66.32184459 155.0625 84.125 C151.20784339 97.80132166 144.83824396 113.60429365 132 121 C126.69274687 123.93029922 121.65761313 125.88716327 115.7265625 127.125 C114.95373932 127.29112793 114.18091614 127.45725586 113.38467407 127.62841797 C103.6409806 129.61911896 93.77656834 130.3798216 83.88085938 131.20898438 C63.39287526 132.96050615 43.88700797 136.0642438 29.82421875 152.55078125 C18.73714637 166.70163875 12.12192431 182.38217661 5 199 C83.54 199 162.08 199 243 199 C243 136.3 243 73.6 243 9 C221.15139172 9 194.22056669 17.39656828 178.27734375 32.609375 Z " fill="#448EE1" transform="translate(170,100)"/>
<path d="M0 0 C86.79 0 173.58 0 263 0 C263 103.62 263 207.24 263 314 C176.21 314 89.42 314 0 314 C0 210.38 0 106.76 0 0 Z M5 5 C5 105.32 5 205.64 5 309 C88.49 309 171.98 309 258 309 C258 208.68 258 108.36 258 5 C174.51 5 91.02 5 5 5 Z " fill="#E57350" transform="translate(162,91)"/>
<path d="M0 0 C83.49 0 166.98 0 253 0 C253 100.32 253 200.64 253 304 C169.51 304 86.02 304 0 304 C0 203.68 0 103.36 0 0 Z M3 4 C3 71.32 3 138.64 3 208 C84.84 208 166.68 208 251 208 C251 140.68 251 73.36 251 4 C169.16 4 87.32 4 3 4 Z M4 212 C4 241.37 4 270.74 4 301 C30.07 301 56.14 301 83 301 C83 271.63 83 242.26 83 212 C56.93 212 30.86 212 4 212 Z M87 212 C87 241.37 87 270.74 87 301 C113.07 301 139.14 301 166 301 C166 271.63 166 242.26 166 212 C139.93 212 113.86 212 87 212 Z M171 212 C171 241.37 171 270.74 171 301 C197.07 301 223.14 301 250 301 C250 271.63 250 242.26 250 212 C223.93 212 197.86 212 171 212 Z " fill="#FFFFFF" transform="translate(167,96)"/>
<path d="M0 0 C0.33 0.99 0.66 1.98 1 3 C0.67 3.66 0.34 4.32 0 5 C-2.15454102 5.60668945 -2.15454102 5.60668945 -5.00390625 6.11328125 C-6.04683838 6.30639893 -7.08977051 6.4995166 -8.16430664 6.69848633 C-9.84641235 7.0024231 -9.84641235 7.0024231 -11.5625 7.3125 C-33.72953015 11.56544939 -57.28838854 17.41439754 -70.75 37.125 C-78.48290827 50.15839938 -83.02765048 65.5958061 -86.9375 80.125 C-91.02397271 94.62380517 -97.75047377 109.87665552 -111 118 C-116.29145248 120.95129126 -121.34893065 122.88852899 -127.2734375 124.125 C-128.04626068 124.29112793 -128.81908386 124.45725586 -129.61532593 124.62841797 C-139.3590194 126.61911896 -149.22343166 127.3798216 -159.11914062 128.20898438 C-178.75313421 129.88749834 -198.61879689 132.59547189 -212.109375 148.484375 C-221.44351577 160.39345115 -228.15097324 173.57912176 -233.90625 187.52539062 C-234.25300781 188.33943359 -234.59976563 189.15347656 -234.95703125 189.9921875 C-235.25585205 190.71776855 -235.55467285 191.44334961 -235.86254883 192.19091797 C-237.25931406 194.41243125 -238.59751002 195.03825215 -241 196 C-242.19617225 191.83537528 -241.81358675 189.6931507 -240.0078125 185.7890625 C-239.55446533 184.7985791 -239.10111816 183.8080957 -238.6340332 182.78759766 C-238.13605225 181.74394043 -237.63807129 180.7002832 -237.125 179.625 C-236.62121826 178.55169434 -236.11743652 177.47838867 -235.59838867 176.37255859 C-225.94266667 156.11062232 -214.85240196 138.02630926 -193.7265625 128.2890625 C-183.54060593 124.7656184 -173.31399102 123.47831758 -162.62945557 122.72128296 C-133.65106633 121.14247627 -133.65106633 121.14247627 -108.125 108.6875 C-98.66772848 96.72683308 -94.00227322 83.41414842 -89.56640625 69.0234375 C-82.69320856 46.81100814 -75.36887702 25.94712288 -53.66015625 14.19140625 C-41.63721879 8.18154615 -29.03431274 4.52717564 -15.9375 1.6875 C-15.15213867 1.51581299 -14.36677734 1.34412598 -13.55761719 1.16723633 C-8.94300008 0.22010346 -4.70974354 -0.16887527 0 0 Z " fill="#6CDEAC" transform="translate(413,104)"/>
<path d="M0 0 C26.07 0 52.14 0 79 0 C79 29.37 79 58.74 79 89 C52.93 89 26.86 89 0 89 C0 59.63 0 30.26 0 0 Z M5 5 C5 31.07 5 57.14 5 84 C27.77 84 50.54 84 74 84 C74 57.93 74 31.86 74 5 C51.23 5 28.46 5 5 5 Z " fill="#66DDA9" transform="translate(254,308)"/>
<path d="M0 0 C26.07 0 52.14 0 79 0 C79 29.37 79 58.74 79 89 C52.93 89 26.86 89 0 89 C0 59.63 0 30.26 0 0 Z M5 5 C5 31.07 5 57.14 5 84 C27.77 84 50.54 84 74 84 C74 57.93 74 31.86 74 5 C51.23 5 28.46 5 5 5 Z " fill="#66DDA9" transform="translate(171,308)"/>
<path d="M0 0 C26.07 0 52.14 0 79 0 C79 29.37 79 58.74 79 89 C52.93 89 26.86 89 0 89 C0 59.63 0 30.26 0 0 Z M4 5 C3.8996812 7.45905221 3.8638182 9.89003428 3.87060547 12.34960938 C3.86885315 13.11868118 3.86710083 13.88775299 3.86529541 14.68013 C3.8608766 17.23469263 3.86381498 19.78918661 3.8671875 22.34375 C3.86651447 24.11112481 3.86554445 25.87849953 3.86428833 27.64587402 C3.86281132 31.35490803 3.86496602 35.063918 3.86962891 38.77294922 C3.8753262 43.53822493 3.87204721 48.30344432 3.86605644 53.06871796 C3.86245092 56.71971057 3.86358938 60.37068973 3.86618423 64.02168274 C3.86685353 65.77924099 3.866025 67.53680045 3.86370468 69.2943573 C3.86117829 71.74640154 3.86501854 74.19835331 3.87060547 76.65039062 C3.86858124 77.38393265 3.86655701 78.11747467 3.86447144 78.87324524 C3.58424642 82.22137383 3.58424642 82.22137383 5 85 C7.14200324 85.09952293 9.28732705 85.12799679 11.43164062 85.12939453 C12.10317673 85.13114685 12.77471283 85.13289917 13.46659851 85.13470459 C15.69650828 85.1391223 17.92633936 85.13618542 20.15625 85.1328125 C21.69942236 85.13348556 23.24259461 85.13445561 24.7857666 85.13571167 C28.0240174 85.13718853 31.26224067 85.13503447 34.50048828 85.13037109 C38.66042523 85.1246738 42.82029766 85.12795287 46.98023224 85.13394356 C50.16799408 85.13754949 53.35574051 85.13641044 56.54350281 85.13381577 C58.07777412 85.13314658 59.61204682 85.13397461 61.14631653 85.13629532 C63.28703541 85.13882238 65.42764842 85.13498054 67.56835938 85.12939453 C68.78890015 85.12859894 70.00944092 85.12780334 71.26696777 85.12698364 C73.91300985 85.31149888 73.91300985 85.31149888 75 84 C75.1003188 81.54094779 75.1361818 79.10996572 75.12939453 76.65039062 C75.13114685 75.88131882 75.13289917 75.11224701 75.13470459 74.31987 C75.1391234 71.76530737 75.13618502 69.21081339 75.1328125 66.65625 C75.13348553 64.88887519 75.13445555 63.12150047 75.13571167 61.35412598 C75.13718868 57.64509197 75.13503398 53.936082 75.13037109 50.22705078 C75.1246738 45.46177507 75.12795279 40.69655568 75.13394356 35.93128204 C75.13754908 32.28028943 75.13641062 28.62931027 75.13381577 24.97831726 C75.13314647 23.22075901 75.133975 21.46319955 75.13629532 19.7056427 C75.13882171 17.25359846 75.13498146 14.80164669 75.12939453 12.34960938 C75.13243088 11.24929634 75.13243088 11.24929634 75.13552856 10.12675476 C75.41575358 6.77862617 75.41575358 6.77862617 74 4 C71.85799676 3.90047707 69.71267295 3.87200321 67.56835938 3.87060547 C66.89682327 3.86885315 66.22528717 3.86710083 65.53340149 3.86529541 C63.30349172 3.8608777 61.07366064 3.86381458 58.84375 3.8671875 C57.30057764 3.86651444 55.75740539 3.86554439 54.2142334 3.86428833 C50.9759826 3.86281147 47.73775933 3.86496553 44.49951172 3.86962891 C40.33957477 3.8753262 36.17970234 3.87204713 32.01976776 3.86605644 C28.83200592 3.86245051 25.64425949 3.86358956 22.45649719 3.86618423 C20.92222588 3.86685342 19.38795318 3.86602539 17.85368347 3.86370468 C15.71296459 3.86117762 13.57235158 3.86501946 11.43164062 3.87060547 C10.21109985 3.87140106 8.99055908 3.87219666 7.73303223 3.87301636 C5.08699015 3.68850112 5.08699015 3.68850112 4 5 Z " fill="#66DDA9" transform="translate(338,308)"/>
<path d="M0 0 C1.65 0 3.3 0 5 0 C5 9.24 5 18.48 5 28 C14.24 28 23.48 28 33 28 C33 29.65 33 31.3 33 33 C23.76 33 14.52 33 5 33 C5 42.24 5 51.48 5 61 C3.35 61 1.7 61 0 61 C0 51.76 0 42.52 0 33 C-9.24 33 -18.48 33 -28 33 C-28 31.35 -28 29.7 -28 28 C-18.76 28 -9.52 28 0 28 C0 18.76 0 9.52 0 0 Z " fill="#E57654" transform="translate(209,321)"/>
<path d="M0 0 C20.13 0 40.26 0 61 0 C61 1.65 61 3.3 61 5 C40.87 5 20.74 5 0 5 C0 3.35 0 1.7 0 0 Z " fill="#E57654" transform="translate(264,350)"/>
<path d="M0 0 C19.8 0 39.6 0 60 0 C60 1.65 60 3.3 60 5 C40.2 5 20.4 5 0 5 C0 3.35 0 1.7 0 0 Z " fill="#448EE2" transform="translate(348,356)"/>
<path d="M0 0 C19.8 0 39.6 0 60 0 C60 1.65 60 3.3 60 5 C40.2 5 20.4 5 0 5 C0 3.35 0 1.7 0 0 Z " fill="#448EE2" transform="translate(348,339)"/>
</svg>
