<?xml version="1.0" encoding="UTF-8"?>
<svg version="1.1" xmlns="http://www.w3.org/2000/svg" width="590" height="500">
<path d="M0 0 C194.7 0 389.4 0 590 0 C590 165 590 330 590 500 C395.3 500 200.6 500 0 500 C0 335 0 170 0 0 Z " fill="#FFFFFF" transform="translate(0,0)"/>
<path d="M0 0 C86.79 0 173.58 0 263 0 C263 103.62 263 207.24 263 314 C176.21 314 89.42 314 0 314 C0 210.38 0 106.76 0 0 Z " fill="#E17453" transform="translate(162,91)"/>
<path d="M0 0 C0 62.04 0 124.08 0 188 C-77.55 188 -155.1 188 -235 188 C-234.34 187.67 -233.68 187.34 -233 187 C-232.22409386 185.1858192 -232.22409386 185.1858192 -231.61328125 182.9921875 C-230.10618152 178.21293331 -228.24293023 173.6915173 -226.1875 169.125 C-225.6630127 167.95372559 -225.6630127 167.95372559 -225.12792969 166.75878906 C-221.40735798 158.54634904 -217.46165109 150.2171818 -212 143 C-211.34 143 -210.68 143 -210 143 C-209.74089844 142.40058594 -209.48179687 141.80117187 -209.21484375 141.18359375 C-205.38667279 134.30273341 -196.12038184 130.42838845 -189 128 C-176.77848239 124.98683094 -164.23219259 124.23337988 -151.72265625 123.22070312 C-150.82417969 123.14787109 -149.92570312 123.07503906 -149 123 C-148.19433594 122.93490234 -147.38867188 122.86980469 -146.55859375 122.80273438 C-130.58267576 121.44628851 -114.39203337 117.93310691 -102.8125 106 C-94.05569243 95.22184985 -90.00895128 81.90575659 -85.875 68.875 C-72.14536102 26.01758137 -72.14536102 26.01758137 -50.9375 14.87890625 C-38.94743436 8.9591123 -26.03115942 6.14181725 -12.97119141 3.64770508 C-11.99327637 3.45974365 -11.01536133 3.27178223 -10.0078125 3.078125 C-9.13785645 2.91731445 -8.26790039 2.75650391 -7.37158203 2.59082031 C-4.96673158 1.991712 -2.38623028 0 0 0 Z " fill="#FEFEFE" transform="translate(413,111)"/>
<path d="M0 0 C73.26 0 146.52 0 222 0 C222 0.33 222 0.66 222 1 C220.87464844 1.23074219 219.74929688 1.46148437 218.58984375 1.69921875 C196.47384386 6.34871522 173.41883581 13.081586 159.3828125 32.203125 C151.05007939 45.24190946 146.89571286 60.97444647 142.25 75.61328125 C137.61238545 90.17828945 132.70278099 105.54475919 118.5 113.3125 C104.88849354 119.39402585 89.48115968 119.91289739 74.81933594 121.22949219 C53.44121725 123.17295752 32.84365018 126.79559136 18.21484375 144.11328125 C10.89310163 154.03682695 5.83833377 165.71055454 1 177 C0.67 177 0.34 177 0 177 C0 118.59 0 60.18 0 0 Z " fill="#FEFEFE" transform="translate(175,105)"/>
<path d="M0 0 C81.18 0 162.36 0 246 0 C246 66.66 246 133.32 246 202 C164.82 202 83.64 202 0 202 C0 135.34 0 68.68 0 0 Z M4 4 C4 62.41 4 120.82 4 181 C6.00643894 178.99356106 6.66217808 177.75222297 7.734375 175.18359375 C8.05801025 174.42361084 8.38164551 173.66362793 8.71508789 172.88061523 C9.05660889 172.07438721 9.39812988 171.26815918 9.75 170.4375 C12.62816163 163.81636171 15.59671849 157.75902871 20 152 C20.53109375 151.24589844 21.0621875 150.49179688 21.609375 149.71484375 C31.06478922 136.72449256 44.65230899 130.06203263 60.3215332 127.4453125 C61.46968506 127.29835938 62.61783691 127.15140625 63.80078125 127 C64.76000992 126.87671829 64.76000992 126.87671829 65.73861694 126.75094604 C70.77914812 126.11744411 75.82899368 125.5852218 80.8828125 125.0703125 C81.63858078 124.99255585 82.39434906 124.91479919 83.17301941 124.83468628 C89.47465811 124.18735783 89.47465811 124.18735783 92.46240234 123.90087891 C107.80076842 122.41942348 123.20429631 120.40771615 133.6875 107.9375 C141.89456076 96.33906059 145.57533604 82.56665439 149.67456055 69.15014648 C153.86180101 55.51285454 158.45291312 41.93575406 168 31 C168.48597656 30.42121094 168.97195313 29.84242188 169.47265625 29.24609375 C183.09130882 14.28899866 206.61252944 7.97137257 226 5 C226 4.67 226 4.34 226 4 C152.74 4 79.48 4 4 4 Z M239.25048828 10.93261719 C236.80781463 12.09115149 234.64795997 12.58720799 231.9921875 13.078125 C231.01403076 13.26624756 230.03587402 13.45437012 229.02807617 13.64819336 C227.98756104 13.84678955 226.9470459 14.04538574 225.875 14.25 C205.11203878 18.41321508 183.53319369 24.05677864 170.6875 42.375 C164.36890812 52.89130775 160.74627957 64.33661591 157 75.9375 C144.04106452 115.97634025 144.04106452 115.97634025 128.46875 124.36328125 C118.65916578 129.03385576 109.01680434 131.40191468 98.25 132.5625 C97.16887939 132.68689453 96.08775879 132.81128906 94.97387695 132.93945312 C88.65732791 133.65128085 82.33719822 134.24423864 76.00244141 134.76635742 C59.58886289 136.12869867 44.14608578 138.85391422 32 151 C32 151.66 32 152.32 32 153 C31.34 153 30.68 153 30 153 C22.46906591 163.16499319 9 184.1149963 9 197 C8.34 197.33 7.68 197.66 7 198 C84.55 198 162.1 198 242 198 C242 135.96 242 73.92 242 10 C240.81664714 9.92159846 240.81664714 9.92159846 239.25048828 10.93261719 Z " fill="#448EE1" transform="translate(171,101)"/>
<path d="M0 0 C25.41 0 50.82 0 77 0 C77 28.71 77 57.42 77 87 C51.59 87 26.18 87 0 87 C0 58.29 0 29.58 0 0 Z " fill="#C1C2C3" transform="translate(339,309)"/>
<path d="M0 0 C25.41 0 50.82 0 77 0 C77 28.71 77 57.42 77 87 C51.59 87 26.18 87 0 87 C0 58.29 0 29.58 0 0 Z " fill="#FFFFFF" transform="translate(255,309)"/>
<path d="M0 0 C25.41 0 50.82 0 77 0 C77 28.71 77 57.42 77 87 C51.59 87 26.18 87 0 87 C0 58.29 0 29.58 0 0 Z " fill="#FFFFFF" transform="translate(172,309)"/>
<path d="M0 0 C1 1 1 1 1.4375 3.3125 C1 6 1 6 -1.32421875 8.01953125 C-5.87833124 10.86761191 -11.03997238 11.449602 -16.25 12.375 C-35.95701377 16.19258906 -57.10439275 21.44862979 -69.78125 38.37890625 C-77.41914478 50.51770331 -81.31648766 64.6581024 -85.61962891 78.22216797 C-90.92082489 94.87759986 -96.81190069 113.27798052 -113.20678711 122.09985352 C-123.07987561 127.05588855 -132.83393456 129.38582539 -143.75 130.5625 C-145.37168091 130.7490918 -145.37168091 130.7490918 -147.02612305 130.93945312 C-153.34267209 131.65128085 -159.66280178 132.24423864 -165.99755859 132.76635742 C-181.72062481 134.07138555 -197.18232646 136.50172304 -209 148 C-209.33 148.66 -209.66 149.32 -210 150 C-210.66 150 -211.32 150 -212 150 C-212.41185547 151.10214844 -212.41185547 151.10214844 -212.83203125 152.2265625 C-213.92696294 154.82656751 -215.16972203 157.00477139 -216.6875 159.375 C-222.49035846 168.88602656 -226.8367494 179.24119915 -230.859375 189.609375 C-231.99997883 191.99995564 -232.92076377 193.37934219 -235 195 C-238.1875 195.6875 -238.1875 195.6875 -241 196 C-243.55427853 187.73323689 -238.5521499 179.00707901 -235.25 171.5625 C-234.83234375 170.58990234 -234.4146875 169.61730469 -233.984375 168.61523438 C-226.92199403 152.49879487 -216.8792153 136.39065531 -200.234375 128.8671875 C-193.01564925 126.06551422 -185.8932884 123.98477181 -178.19921875 123 C-177.23999008 122.87671829 -177.23999008 122.87671829 -176.26138306 122.75094604 C-171.22085188 122.11744411 -166.17100632 121.5852218 -161.1171875 121.0703125 C-160.36141922 120.99255585 -159.60565094 120.91479919 -158.82698059 120.83468628 C-152.52534189 120.18735783 -152.52534189 120.18735783 -149.53759766 119.90087891 C-135.45696667 118.54090177 -120.72511273 116.90858472 -110.328125 106.29296875 C-101.11762037 95.0172221 -97.49753752 79.80516502 -93.32543945 66.15014648 C-89.14457685 52.53362642 -84.56436005 38.89670871 -75 28 C-74.44054687 27.34773438 -73.88109375 26.69546875 -73.3046875 26.0234375 C-58.22452288 9.68133442 -34.89947392 4.69497438 -14 0.1875 C-12.824375 -0.06644531 -11.64875 -0.32039063 -10.4375 -0.58203125 C-6.71283948 -1.03491611 -3.66700531 -0.74715233 0 0 Z " fill="#68DDAA" transform="translate(413,104)"/>
<path d="M0 0 C25.41 0 50.82 0 77 0 C77 28.71 77 57.42 77 87 C51.59 87 26.18 87 0 87 C0 58.29 0 29.58 0 0 Z M4 4 C4 30.07 4 56.14 4 83 C26.77 83 49.54 83 73 83 C73 56.93 73 30.86 73 4 C50.23 4 27.46 4 4 4 Z " fill="#66DDA9" transform="translate(255,309)"/>
<path d="M0 0 C25.41 0 50.82 0 77 0 C77 28.71 77 57.42 77 87 C51.59 87 26.18 87 0 87 C0 58.29 0 29.58 0 0 Z M4 4 C4 30.07 4 56.14 4 83 C26.77 83 49.54 83 73 83 C73 56.93 73 30.86 73 4 C50.23 4 27.46 4 4 4 Z " fill="#66DDA9" transform="translate(172,309)"/>
<path d="M0 0 C25.41 0 50.82 0 77 0 C77 28.71 77 57.42 77 87 C51.59 87 26.18 87 0 87 C0 58.29 0 29.58 0 0 Z M3 4 C2.8996812 6.45905221 2.8638182 8.89003428 2.87060547 11.34960938 C2.86885315 12.11868118 2.86710083 12.88775299 2.86529541 13.68013 C2.8608766 16.23469263 2.86381498 18.78918661 2.8671875 21.34375 C2.86651447 23.11112481 2.86554445 24.87849953 2.86428833 26.64587402 C2.86281132 30.35490803 2.86496602 34.063918 2.86962891 37.77294922 C2.8753262 42.53822493 2.87204721 47.30344432 2.86605644 52.06871796 C2.86245092 55.71971057 2.86358938 59.37068973 2.86618423 63.02168274 C2.86685353 64.77924099 2.866025 66.53680045 2.86370468 68.2943573 C2.86117829 70.74640154 2.86501854 73.19835331 2.87060547 75.65039062 C2.86858124 76.38393265 2.86655701 77.11747467 2.86447144 77.87324524 C2.58424642 81.22137383 2.58424642 81.22137383 4 84 C6.14200324 84.09952293 8.28732705 84.12799679 10.43164062 84.12939453 C11.10317673 84.13114685 11.77471283 84.13289917 12.46659851 84.13470459 C14.69650828 84.1391223 16.92633936 84.13618542 19.15625 84.1328125 C20.69942236 84.13348556 22.24259461 84.13445561 23.7857666 84.13571167 C27.0240174 84.13718853 30.26224067 84.13503447 33.50048828 84.13037109 C37.66042523 84.1246738 41.82029766 84.12795287 45.98023224 84.13394356 C49.16799408 84.13754949 52.35574051 84.13641044 55.54350281 84.13381577 C57.07777412 84.13314658 58.61204682 84.13397461 60.14631653 84.13629532 C62.28703541 84.13882238 64.42764842 84.13498054 66.56835938 84.12939453 C67.78890015 84.12859894 69.00944092 84.12780334 70.26696777 84.12698364 C72.91300985 84.31149888 72.91300985 84.31149888 74 83 C74.1003188 80.54094779 74.1361818 78.10996572 74.12939453 75.65039062 C74.13114685 74.88131882 74.13289917 74.11224701 74.13470459 73.31987 C74.1391234 70.76530737 74.13618502 68.21081339 74.1328125 65.65625 C74.13348553 63.88887519 74.13445555 62.12150047 74.13571167 60.35412598 C74.13718868 56.64509197 74.13503398 52.936082 74.13037109 49.22705078 C74.1246738 44.46177507 74.12795279 39.69655568 74.13394356 34.93128204 C74.13754908 31.28028943 74.13641062 27.62931027 74.13381577 23.97831726 C74.13314647 22.22075901 74.133975 20.46319955 74.13629532 18.7056427 C74.13882171 16.25359846 74.13498146 13.80164669 74.12939453 11.34960938 C74.13243088 10.24929634 74.13243088 10.24929634 74.13552856 9.12675476 C74.41575358 5.77862617 74.41575358 5.77862617 73 3 C70.85799676 2.90047707 68.71267295 2.87200321 66.56835938 2.87060547 C65.89682327 2.86885315 65.22528717 2.86710083 64.53340149 2.86529541 C62.30349172 2.8608777 60.07366064 2.86381458 57.84375 2.8671875 C56.30057764 2.86651444 54.75740539 2.86554439 53.2142334 2.86428833 C49.9759826 2.86281147 46.73775933 2.86496553 43.49951172 2.86962891 C39.33957477 2.8753262 35.17970234 2.87204713 31.01976776 2.86605644 C27.83200592 2.86245051 24.64425949 2.86358956 21.45649719 2.86618423 C19.92222588 2.86685342 18.38795318 2.86602539 16.85368347 2.86370468 C14.71296459 2.86117762 12.57235158 2.86501946 10.43164062 2.87060547 C9.21109985 2.87140106 7.99055908 2.87219666 6.73303223 2.87301636 C4.08699015 2.68850112 4.08699015 2.68850112 3 4 Z " fill="#66DDA9" transform="translate(339,309)"/>
<path d="M0 0 C1.65 0 3.3 0 5 0 C5 9.24 5 18.48 5 28 C14.24 28 23.48 28 33 28 C33 29.65 33 31.3 33 33 C23.76 33 14.52 33 5 33 C5 42.24 5 51.48 5 61 C3.35 61 1.7 61 0 61 C0 51.76 0 42.52 0 33 C-9.24 33 -18.48 33 -28 33 C-28 31.35 -28 29.7 -28 28 C-18.76 28 -9.52 28 0 28 C0 18.76 0 9.52 0 0 Z " fill="#E57654" transform="translate(209,321)"/>
<path d="M0 0 C20.13 0 40.26 0 61 0 C61 1.65 61 3.3 61 5 C40.87 5 20.74 5 0 5 C0 3.35 0 1.7 0 0 Z " fill="#E57654" transform="translate(264,350)"/>
<path d="M0 0 C19.8 0 39.6 0 60 0 C60 1.65 60 3.3 60 5 C40.2 5 20.4 5 0 5 C0 3.35 0 1.7 0 0 Z " fill="#448EE2" transform="translate(348,356)"/>
<path d="M0 0 C19.8 0 39.6 0 60 0 C60 1.65 60 3.3 60 5 C40.2 5 20.4 5 0 5 C0 3.35 0 1.7 0 0 Z " fill="#448EE2" transform="translate(348,339)"/>
</svg>
